<?xml version="1.0" standalone="no"?>
<!DOCTYPE svg PUBLIC "-//W3C//DTD SVG 20010904//EN"
 "http://www.w3.org/TR/2001/REC-SVG-20010904/DTD/svg10.dtd">
<svg version="1.0" xmlns="http://www.w3.org/2000/svg"
 width="291.000000pt" height="291.000000pt" viewBox="0 0 291.000000 291.000000"
 preserveAspectRatio="xMidYMid meet">
<metadata>
Created by potrace 1.14, written by Peter Selinger 2001-2017
</metadata>
<g transform="translate(0.000000,291.000000) scale(0.100000,-0.100000)"
fill="#000000" stroke="none">
<path d="M1161 2885 c-341 -77 -616 -287 -765 -584 -87 -173 -120 -326 -114
-531 l3 -127 -37 -35 c-45 -42 -58 -73 -58 -138 0 -43 4 -52 36 -78 l35 -29
-26 -39 c-17 -25 -25 -49 -23 -69 3 -26 8 -30 34 -33 18 -2 48 4 68 12 l36 15
13 -32 c13 -31 13 -32 -24 -49 -45 -20 -73 -59 -73 -104 0 -44 25 -70 94 -95
l58 -21 4 -59 c3 -39 11 -69 25 -87 18 -24 26 -27 86 -27 64 -1 67 -2 109 -44
50 -49 154 -103 248 -128 50 -13 103 -17 225 -17 182 1 311 23 515 89 87 29
115 34 119 24 2 -7 20 -30 40 -52 42 -45 92 -60 151 -45 96 25 147 148 84 205
l-24 22 59 30 c129 65 305 193 407 296 84 85 109 116 145 189 39 79 43 96 47
176 2 49 0 102 -6 119 -7 19 -7 33 -1 36 19 12 49 85 49 120 0 20 -7 49 -15
64 -13 27 -13 29 10 39 18 8 25 20 25 40 0 34 -46 101 -82 120 -18 10 -24 20
-20 37 6 35 -26 122 -61 161 -44 51 -76 64 -155 64 -69 0 -70 0 -83 32 -22 53
-122 179 -203 256 -132 125 -280 208 -458 258 -80 23 -117 27 -263 30 -123 3
-188 0 -234 -11z m486 -69 c170 -47 337 -141 438 -247 l50 -52 -50 41 c-108
88 -266 166 -415 207 -110 29 -155 32 -164 10 -23 -61 -243 -60 -279 1 -4 8
-18 14 -30 14 -46 0 -215 -53 -303 -94 -92 -44 -228 -130 -253 -160 -8 -10
-24 -22 -35 -28 -38 -19 56 72 138 133 95 72 201 127 315 163 126 40 171 45
341 41 128 -3 171 -8 247 -29z m-42 -161 c19 -20 35 -42 35 -50 0 -27 -37 -16
-69 20 -57 66 -28 91 34 30z m-161 -107 c32 -43 44 -88 23 -88 -17 0 -64 56
-67 80 -7 49 10 52 44 8z m-592 -49 c-3 -37 -34 -87 -48 -79 -14 8 -6 70 12
97 21 33 40 24 36 -18z m176 -20 c4 -44 -13 -89 -33 -89 -11 0 -15 11 -15 40
0 78 42 121 48 49z m222 22 c5 -11 10 -40 10 -65 0 -59 -24 -63 -41 -7 -19 64
5 120 31 72z m1311 -409 c-18 -33 -38 -43 -148 -69 -179 -42 -213 -53 -233
-73 -19 -19 -20 -19 -20 -2 0 35 36 52 176 82 76 16 159 41 184 54 25 13 46
24 48 25 1 0 -2 -7 -7 -17z m-383 -295 c-8 -66 -36 -117 -74 -133 -47 -20 -54
-17 -17 6 41 25 60 55 75 118 15 63 22 67 16 9z m460 -47 c-11 -32 -49 -65
-106 -95 -54 -27 -48 -11 15 38 32 24 67 54 77 66 25 28 27 27 14 -9z m-820
-116 c-9 -19 -9 -36 0 -70 28 -103 0 -200 -68 -238 l-35 -20 21 25 c49 55 59
89 59 199 0 101 6 130 25 130 5 0 4 -12 -2 -26z m632 -204 c0 -19 -40 -30
-143 -39 -138 -12 -168 -28 -254 -136 -37 -46 -69 -82 -71 -81 -6 6 118 164
149 190 37 32 79 43 194 51 50 4 97 11 105 16 19 11 20 11 20 -1z m-1201 -100
c-45 -53 -87 -83 -130 -94 -22 -5 -17 4 35 57 65 68 91 86 119 87 14 0 9 -11
-24 -50z m571 -294 c22 -62 23 -97 3 -104 -9 -2 -13 8 -13 30 0 19 -8 52 -19
74 -28 59 -34 115 -20 181 l13 58 7 -90 c4 -51 16 -116 29 -149z m-182 127 c8
-53 -146 -159 -180 -125 -9 9 -8 12 5 12 20 0 87 57 87 75 0 7 10 24 21 39 26
33 62 32 67 -1z m360 -410 c2 -11 -4 -23 -12 -26 -12 -5 -16 1 -16 24 0 35 23
36 28 2z"/>
<path d="M1135 240 c-422 -18 -714 -64 -719 -115 -3 -31 161 -70 399 -95 166
-18 912 -25 1123 -11 300 20 495 51 551 88 l25 16 -23 18 c-31 25 -74 37 -226
59 -253 37 -761 55 -1130 40z"/>
</g>
</svg>
